<?xml version="1.0" standalone="no"?>
<!DOCTYPE svg PUBLIC "-//W3C//DTD SVG 20010904//EN"
 "http://www.w3.org/TR/2001/REC-SVG-20010904/DTD/svg10.dtd">
<svg version="1.0" xmlns="http://www.w3.org/2000/svg"
 width="300.000000pt" height="300.000000pt" viewBox="0 0 300.000000 300.000000"
 preserveAspectRatio="xMidYMid meet">

<g transform="translate(0.000000,300.000000) scale(0.100000,-0.100000)"
fill="#000000" stroke="none">
<path d="M0 1500 l0 -1500 1500 0 1500 0 0 1500 0 1500 -1500 0 -1500 0 0
-1500z m1493 1130 c3 -11 1 -18 -4 -14 -5 3 -9 12 -9 20 0 20 7 17 13 -6z
m-93 -90 c0 -13 -1 -13 -10 0 -5 8 -10 22 -10 30 0 13 1 13 10 0 5 -8 10 -22
10 -30z m340 35 c0 -12 -33 -85 -37 -81 -7 7 19 86 29 86 4 0 8 -2 8 -5z
m-424 -324 c14 -14 138 -42 186 -42 24 -1 67 2 96 6 59 7 117 -8 145 -39 19
-21 23 -46 7 -46 -6 0 -9 -3 -8 -7 1 -5 -2 -19 -6 -32 -5 -14 -4 -27 3 -34 6
-6 11 -21 11 -34 0 -13 4 -23 10 -23 5 0 8 -26 7 -60 -1 -33 -4 -55 -6 -49 -2
6 -11 -3 -21 -19 -16 -26 -27 -31 -74 -37 -31 -4 -56 -12 -56 -19 0 -14 -39
-41 -60 -41 -17 0 -32 -62 -21 -85 22 -42 29 -108 21 -175 -6 -46 -5 -92 2
-134 l11 -65 -36 -33 c-20 -18 -32 -35 -27 -38 6 -4 10 -15 10 -27 0 -18 -4
-20 -39 -14 -34 5 -42 3 -55 -16 -23 -32 -21 -62 3 -55 15 3 18 1 14 -11 -4
-10 -2 -13 5 -8 7 4 12 1 12 -8 0 -8 6 -17 13 -20 6 -3 0 -3 -14 0 -16 3 -44
-3 -70 -15 -44 -22 -89 -28 -89 -12 0 8 24 19 71 34 10 3 18 20 21 42 4 32 2
36 -16 33 -15 -2 -22 -12 -24 -30 -2 -16 -7 -28 -12 -28 -5 0 -7 7 -4 15 5 11
2 13 -10 9 -9 -3 -16 -10 -16 -14 0 -5 -13 -11 -29 -15 -37 -8 -56 -42 -42
-77 13 -36 27 -42 43 -19 12 16 26 19 96 20 45 0 82 -3 82 -7 0 -4 30 -8 65
-8 36 -1 69 -5 73 -8 4 -4 -1 -20 -10 -36 -12 -21 -13 -31 -4 -40 8 -8 7 -10
-6 -5 -10 4 -18 14 -18 22 0 10 -7 14 -20 10 -11 -3 -20 -1 -20 4 0 5 -12 4
-27 -2 -19 -7 -28 -7 -34 3 -5 8 -10 3 -14 -15 -4 -15 -12 -26 -19 -25 -6 2
-11 -2 -12 -7 -2 -15 27 -55 36 -50 4 3 11 -7 15 -22 4 -17 2 -29 -7 -34 -10
-7 -10 -9 1 -9 11 0 10 -5 -4 -20 -14 -16 -20 -17 -27 -8 -5 9 -8 9 -8 2 0
-17 -59 -23 -75 -8 -7 7 -15 11 -18 8 -3 -4 -9 10 -12 30 -5 22 -13 36 -22 36
-8 0 -12 4 -9 9 3 5 -4 11 -15 14 -12 3 -18 10 -14 16 3 6 1 11 -5 11 -6 0 -8
5 -4 12 5 8 2 9 -9 5 -14 -5 -17 0 -17 23 0 16 -5 32 -11 35 -6 4 -8 14 -5 22
8 19 -4 64 -14 58 -5 -3 -6 5 -2 17 4 17 2 20 -11 15 -11 -4 -14 -2 -10 9 3 7
0 14 -6 14 -6 0 -11 8 -11 18 0 10 -7 28 -16 40 -8 12 -12 27 -8 34 5 8 2 9
-10 5 -13 -5 -18 0 -23 23 -3 17 -10 33 -14 36 -5 3 -9 14 -9 24 0 10 -3 20
-7 22 -14 6 -53 103 -54 133 -1 17 -5 41 -9 55 -32 106 -32 106 -20 179 7 39
16 71 19 71 3 0 6 18 6 40 1 22 -3 40 -8 40 -10 0 -8 9 23 93 15 44 18 62 10
72 -8 9 -8 15 0 20 5 3 10 15 10 27 0 38 31 88 59 95 25 6 66 31 106 65 35 29
90 66 101 67 5 1 14 -3 20 -8z m441 -618 c-4 -3 -1 -13 6 -21 10 -13 9 -14 -3
-10 -19 6 -26 38 -9 38 7 0 9 -3 6 -7z m-867 -70 c0 -7 -7 -13 -15 -13 -8 0
-15 6 -15 13 0 8 7 14 15 14 8 0 15 -6 15 -14z m1040 -54 c0 -18 -14 -40 -32
-50 -15 -8 -23 -6 -38 13 -25 30 -25 43 3 55 22 10 67 -2 67 -18z m-1008 -221
c-6 -6 -9 8 -6 39 4 64 7 67 11 14 3 -24 0 -48 -5 -53z m626 -85 c-4 -22 -22
-20 -26 1 -2 10 3 16 13 16 10 0 15 -7 13 -17z m16 -70 c-1 -30 -7 -41 -27
-53 -21 -12 -29 -12 -39 -2 -9 9 -9 12 4 12 18 0 48 41 48 65 0 8 3 15 8 15 4
0 7 -17 6 -37z m-194 -23 c0 -5 -4 -10 -10 -10 -5 0 -10 5 -10 10 0 6 5 10 10
10 6 0 10 -4 10 -10z m294 -315 c11 -9 14 -15 7 -15 -7 0 -19 7 -27 15 -20 19
-5 19 20 0z m-187 -17 c-3 -8 -6 -5 -6 6 -1 11 2 17 5 13 3 -3 4 -12 1 -19z
m-190 -133 c0 -11 -4 -12 -14 -4 -7 6 -13 13 -13 15 0 2 6 4 13 4 8 0 14 -7
14 -15z m43 -36 c0 -5 -4 -8 -9 -5 -5 4 -12 0 -15 -6 -5 -10 -7 -10 -12 -1 -3
7 -12 9 -20 6 -8 -3 -14 0 -14 6 0 6 16 11 35 11 19 0 35 -5 35 -11z m40 7 c0
-3 -4 -8 -10 -11 -5 -3 -10 -1 -10 4 0 6 5 11 10 11 6 0 10 -2 10 -4z m-82
-52 c7 -12 11 -13 16 -5 5 8 17 1 37 -20 34 -36 36 -42 12 -36 -10 3 -31 8
-46 11 -15 4 -25 10 -22 15 2 5 -7 12 -21 15 -21 6 -24 9 -14 21 16 19 27 19
38 -1z m99 -86 c-3 -8 -6 -5 -6 6 -1 11 2 17 5 13 3 -3 4 -12 1 -19z m-17 -28
c0 -5 -5 -10 -11 -10 -5 0 -7 5 -4 10 3 6 8 10 11 10 2 0 4 -4 4 -10z m253
-240 c3 -11 0 -20 -6 -20 -7 0 -5 -5 3 -10 13 -9 13 -12 -3 -24 -10 -8 -14
-16 -8 -17 9 -4 -80 -109 -91 -109 -3 0 -8 13 -11 29 -7 34 20 124 35 115 5
-3 12 3 15 14 3 14 10 19 21 15 12 -5 14 -2 9 11 -4 10 -4 22 -1 27 8 13 30
-6 37 -31z"/>
<path d="M1710 2044 c0 -8 5 -12 10 -9 6 3 10 10 10 16 0 5 -4 9 -10 9 -5 0
-10 -7 -10 -16z"/>
<path d="M1100 1808 c-60 -27 -110 -75 -110 -107 0 -13 3 -21 7 -18 3 4 12 2
20 -4 9 -8 17 -8 26 0 15 12 27 5 27 -16 0 -8 -4 -11 -10 -8 -5 3 -10 2 -10
-3 0 -5 25 -22 55 -37 30 -16 55 -33 55 -38 0 -5 7 -7 15 -4 8 4 17 2 20 -3 9
-15 91 -12 130 4 23 10 35 22 35 34 0 11 7 23 16 26 12 4 15 14 11 34 -13 67
-14 65 30 76 23 6 45 14 49 18 11 12 -17 70 -30 59 -6 -4 -19 -7 -28 -6 -10 2
-18 -1 -18 -6 0 -5 -10 -3 -22 5 -37 24 -211 20 -268 -6z m150 -68 c0 -7 -68
-21 -103 -21 -9 0 -15 -4 -12 -9 3 -6 -1 -7 -9 -4 -26 10 -14 39 18 45 29 6
106 -2 106 -11z m-150 -14 c0 -18 -19 -31 -28 -21 -4 4 -1 10 6 12 6 3 10 9 6
14 -3 5 0 9 5 9 6 0 11 -6 11 -14z m130 -15 c0 -8 -27 -18 -68 -27 -26 -5 0
16 31 25 18 5 33 10 35 10 1 1 2 -3 2 -8z m-25 -70 c4 -13 17 -21 38 -24 27
-3 25 -4 -11 -5 -31 -2 -41 1 -36 10 5 8 2 9 -9 5 -11 -4 -17 -1 -17 7 0 30
26 35 35 7z"/>
<path d="M1380 1283 c0 -13 14 -29 30 -35 20 -7 54 17 45 31 -7 12 -75 15 -75
4z"/>
<path d="M1310 530 c0 -5 5 -10 11 -10 5 0 7 5 4 10 -3 6 -8 10 -11 10 -2 0
-4 -4 -4 -10z"/>
<path d="M1581 134 c0 -11 3 -14 6 -6 3 7 2 16 -1 19 -3 4 -6 -2 -5 -13z"/>
</g>
</svg>
